<?xml version="1.0" standalone="no"?>
<!DOCTYPE svg PUBLIC "-//W3C//DTD SVG 20010904//EN"
 "http://www.w3.org/TR/2001/REC-SVG-20010904/DTD/svg10.dtd">
<svg version="1.0" xmlns="http://www.w3.org/2000/svg"
 width="512.000000pt" height="512.000000pt" viewBox="0 0 512.000000 512.000000"
 preserveAspectRatio="xMidYMid meet">

<g transform="translate(0.000000,512.000000) scale(0.100000,-0.100000)"
fill="#000000" stroke="none">
<path d="M2413 5106 c-262 -49 -488 -200 -634 -423 -42 -65 -109 -207 -109
-231 0 -6 -44 -25 -97 -43 -176 -58 -262 -114 -332 -219 -67 -101 -83 -172
-79 -342 3 -127 6 -148 27 -192 31 -63 86 -118 153 -153 51 -27 60 -28 222
-31 l170 -4 45 -45 c54 -54 145 -99 228 -114 115 -20 243 22 336 110 l54 51
245 0 244 0 50 -48 c161 -155 398 -157 564 -5 l55 50 85 5 c67 4 96 10 138 32
64 33 123 91 154 154 23 46 23 53 23 357 0 292 -1 315 -23 394 -76 277 -263
498 -526 622 -166 77 -199 82 -581 85 -252 2 -359 0 -412 -10z m783 -176 c43
-11 122 -41 174 -66 79 -39 109 -62 186 -138 181 -180 250 -366 242 -651 l-3
-110 -118 -3 -119 -3 -58 54 c-31 29 -78 63 -104 75 -156 74 -331 44 -460 -78
l-53 -50 -241 0 -241 0 -35 38 c-71 76 -200 132 -306 132 -101 0 -202 -43
-282 -120 l-52 -50 -198 0 c-158 0 -198 3 -198 13 0 63 86 188 154 225 17 9
95 39 174 67 l143 50 33 97 c73 213 210 369 406 462 146 69 185 75 551 75 293
1 334 -1 405 -19z m-1036 -991 c97 -44 144 -117 145 -224 0 -59 -4 -77 -28
-118 -122 -208 -429 -141 -454 99 -19 178 174 317 337 243z m1143 7 c164 -59
213 -278 89 -402 -48 -49 -98 -68 -172 -68 -183 0 -297 186 -214 352 41 83
120 131 214 131 25 0 62 -6 83 -13z m-1648 -231 l0 -85 -80 0 c-158 1 -225 39
-250 143 l-7 27 168 0 169 0 0 -85z m1155 0 l0 -85 -168 0 -167 0 0 85 0 85
168 0 167 0 0 -85z m985 58 c-16 -69 -64 -118 -128 -133 l-37 -8 0 84 0 84 86
0 86 0 -7 -27z"/>
<path d="M2461 4779 c-25 -5 -78 -24 -119 -44 -133 -63 -239 -195 -277 -345
-9 -36 -18 -73 -21 -82 -5 -17 36 -18 760 -18 613 0 766 3 766 13 0 32 -45
168 -73 221 -65 123 -205 226 -345 255 -63 13 -625 13 -691 0z m747 -198 c35
-19 79 -53 98 -75 l35 -41 -527 -3 c-290 -1 -530 0 -532 3 -8 8 67 82 106 107
72 44 99 47 437 45 l320 -2 63 -34z"/>
<path d="M4780 3944 c-58 -25 -99 -63 -127 -117 -26 -50 -27 -58 -31 -252 l-4
-201 -631 -78 c-348 -43 -644 -81 -659 -83 l-28 -5 0 -244 c0 -138 5 -265 11
-294 14 -68 62 -128 128 -162 l53 -28 564 0 564 0 0 -59 c0 -43 -5 -65 -19
-82 l-19 -24 -554 -5 -553 -5 -48 -28 c-169 -99 -162 -341 12 -429 123 -62
269 -16 334 106 17 33 22 57 21 119 l-1 77 259 0 259 0 -7 -22 c-15 -46 -6
-124 20 -176 89 -177 345 -176 439 2 33 63 31 166 -5 228 l-28 46 28 49 27 48
5 710 c3 391 9 717 13 726 15 31 56 39 187 39 l130 0 0 80 0 80 -152 0 c-113
-1 -162 -5 -188 -16z m-160 -1014 l0 -280 -554 0 -555 0 -20 26 c-19 25 -21
40 -21 205 0 99 1 179 3 180 1 0 259 33 572 73 314 40 571 74 573 75 1 0 2
-125 2 -279z m-1011 -816 c12 -15 21 -37 21 -49 0 -12 -9 -34 -21 -49 -16 -20
-29 -26 -59 -26 -30 0 -43 6 -59 26 -12 15 -21 37 -21 49 0 12 9 34 21 49 16
20 29 26 59 26 30 0 43 -6 59 -26z m988 4 c50 -47 14 -128 -57 -128 -47 0 -74
28 -74 77 0 66 81 98 131 51z"/>
<path d="M150 3529 c-55 -25 -95 -62 -123 -114 l-22 -40 0 -815 0 -815 22 -40
c28 -52 68 -89 123 -114 43 -20 64 -21 510 -21 l465 0 50 24 c60 28 97 66 124
126 20 44 21 62 21 840 l0 795 -24 50 c-28 60 -66 97 -126 124 -43 20 -64 21
-510 21 -446 0 -467 -1 -510 -21z m977 -171 c19 -18 23 -32 23 -80 l0 -58
-490 0 -490 0 0 57 c0 44 5 62 22 80 l21 23 446 0 c443 0 445 0 468 -22z m23
-798 l0 -490 -490 0 -490 0 0 490 0 490 490 0 490 0 0 -490z m0 -717 c0 -44
-5 -62 -22 -80 l-21 -23 -446 0 c-443 0 -445 0 -468 22 -19 18 -23 32 -23 80
l0 58 490 0 490 0 0 -57z"/>
<path d="M2425 3126 c-45 -7 -105 -21 -135 -31 -116 -38 -278 -133 -340 -199
l-24 -27 56 -55 56 -56 64 51 c83 65 212 127 308 147 112 24 280 15 385 -20
94 -32 168 -73 243 -134 l55 -44 55 56 56 56 -34 35 c-48 50 -161 123 -242
157 -156 66 -346 90 -503 64z"/>
<path d="M2455 2796 c-106 -24 -199 -71 -274 -136 l-24 -21 57 -58 58 -59 51
38 c28 21 81 49 119 61 128 41 287 12 379 -69 l36 -31 59 60 59 60 -35 30
c-129 109 -330 161 -485 125z"/>
<path d="M2455 2450 c-71 -37 -71 -39 -5 -105 47 -46 62 -57 72 -47 14 14 62
16 87 3 14 -8 29 1 76 49 l57 58 -43 29 c-37 24 -54 28 -123 31 -65 2 -89 -2
-121 -18z"/>
<path d="M2430 2139 c-456 -52 -846 -421 -925 -876 -8 -47 -15 -90 -15 -94 0
-10 -679 -12 -705 -3 -30 12 -45 60 -45 149 l0 85 -80 0 -80 0 0 -108 c0 -98
3 -113 28 -163 30 -60 91 -112 150 -129 22 -6 176 -10 385 -10 191 0 347 -4
347 -9 0 -33 34 -189 54 -248 118 -345 397 -605 754 -700 86 -23 116 -26 262
-26 146 0 176 3 262 26 357 95 636 355 754 700 20 59 54 215 54 248 0 5 82 9
183 9 100 0 199 5 219 10 59 17 120 69 150 129 l28 55 0 318 0 318 -80 0 -80
0 0 -289 c0 -297 -5 -342 -40 -361 -10 -6 -100 -10 -199 -10 l-180 0 -6 48
c-67 492 -459 877 -948 931 -107 12 -139 12 -247 0z m179 -173 c48 -25 102
-96 147 -191 24 -51 44 -100 44 -109 0 -14 -25 -16 -240 -16 -196 0 -240 2
-240 14 0 40 82 200 128 250 59 63 108 79 161 52z m-403 -127 c-19 -41 -42
-100 -52 -131 l-18 -58 -133 0 c-73 0 -133 4 -133 8 0 13 106 111 166 154 48
36 194 111 201 104 2 -1 -12 -36 -31 -77z m804 19 c30 -17 73 -44 95 -61 51
-39 145 -129 145 -139 0 -4 -60 -8 -133 -8 l-133 0 -18 58 c-10 31 -33 90 -52
131 -19 41 -34 75 -34 78 0 6 73 -27 130 -59z m-917 -375 c2 -5 -2 -46 -9 -93
-7 -47 -13 -118 -13 -157 l-1 -73 -206 0 -207 0 7 52 c9 64 60 225 81 256 16
21 21 22 180 22 90 0 166 -3 168 -7z m766 -55 c6 -35 13 -90 16 -123 3 -33 8
-79 10 -102 l5 -43 -330 0 -330 0 5 43 c2 23 7 69 10 102 3 33 10 88 16 123
l11 62 288 0 288 0 11 -62z m515 40 c22 -34 73 -195 81 -255 l7 -53 -205 0
-204 0 -7 113 c-4 61 -11 132 -15 157 -5 25 -7 48 -5 52 3 5 79 8 169 8 160 0
165 -1 179 -22z m-1307 -533 c3 -63 23 -234 29 -257 5 -17 -8 -18 -169 -18
l-175 0 -30 73 c-29 71 -62 196 -62 237 0 20 3 20 203 18 l202 -3 2 -50z m817
-2 c-7 -85 -24 -225 -31 -250 l-5 -23 -288 0 -288 0 -5 23 c-7 25 -24 165 -31
250 l-5 57 329 0 329 0 -5 -57z m576 36 c0 -40 -33 -166 -62 -236 l-30 -73
-174 0 -174 0 5 23 c11 53 25 183 25 243 l0 64 205 0 c200 0 205 0 205 -21z
m-1299 -546 c12 -38 35 -94 51 -127 16 -32 27 -60 24 -63 -9 -9 -115 45 -189
96 -39 28 -97 75 -127 106 l-54 55 136 0 136 0 23 -67z m639 56 c0 -22 -61
-152 -96 -205 -88 -133 -188 -138 -279 -14 -34 46 -105 195 -105 219 0 8 72
11 240 11 162 0 240 -3 240 -11z m410 -35 c-25 -25 -73 -67 -107 -93 -65 -50
-209 -128 -219 -119 -3 3 6 28 19 55 14 26 37 83 52 126 l28 77 135 0 136 0
-44 -46z"/>
</g>
</svg>
